<svg xmlns="http://www.w3.org/2000/svg" xmlns:xlink="http://www.w3.org/1999/xlink" width="500" zoomAndPan="magnify" viewBox="0 0 375 374.999991" height="500" preserveAspectRatio="xMidYMid meet" version="1.0"><defs><clipPath id="079af9726f"><path d="M 33.046875 33.046875 L 342 33.046875 L 342 342.046875 L 33.046875 342.046875 Z M 33.046875 33.046875 " clip-rule="nonzero"/></clipPath></defs><g clip-path="url(#079af9726f)"><path fill="#38b6ff" d="M 237.082031 151.039062 C 237.382812 151.339844 237.648438 151.664062 237.886719 152.015625 C 238.121094 152.367188 238.320312 152.734375 238.480469 153.125 C 238.644531 153.515625 238.769531 153.917969 238.851562 154.332031 C 238.933594 154.746094 238.976562 155.164062 238.980469 155.589844 C 238.980469 156.011719 238.941406 156.429688 238.859375 156.84375 C 238.777344 157.257812 238.660156 157.664062 238.5 158.054688 C 238.339844 158.445312 238.140625 158.816406 237.910156 159.167969 C 237.675781 159.523438 237.410156 159.847656 237.113281 160.148438 L 173.308594 224.003906 C 172.707031 224.613281 172.011719 225.078125 171.222656 225.410156 C 170.433594 225.738281 169.609375 225.902344 168.757812 225.902344 C 167.90625 225.90625 167.085938 225.746094 166.300781 225.421875 C 165.515625 225.097656 164.824219 224.632812 164.222656 224.03125 C 163.960938 223.773438 163.722656 223.496094 163.507812 223.195312 L 137.242188 191.96875 C 136.96875 191.628906 136.726562 191.265625 136.523438 190.875 C 136.320312 190.484375 136.160156 190.082031 136.042969 189.65625 C 135.921875 189.234375 135.847656 188.804688 135.816406 188.367188 C 135.78125 187.929688 135.796875 187.492188 135.855469 187.058594 C 135.910156 186.621094 136.011719 186.199219 136.15625 185.78125 C 136.300781 185.367188 136.488281 184.972656 136.710938 184.597656 C 136.9375 184.21875 137.199219 183.871094 137.496094 183.546875 C 137.792969 183.222656 138.121094 182.933594 138.476562 182.675781 C 138.832031 182.421875 139.210938 182.203125 139.609375 182.023438 C 140.011719 181.84375 140.425781 181.707031 140.855469 181.613281 C 141.285156 181.519531 141.71875 181.46875 142.15625 181.464844 C 142.597656 181.457031 143.03125 181.496094 143.460938 181.578125 C 143.894531 181.664062 144.3125 181.789062 144.714844 181.957031 C 145.121094 182.128906 145.503906 182.335938 145.867188 182.582031 C 146.230469 182.828125 146.566406 183.109375 146.871094 183.425781 C 147.175781 183.742188 147.445312 184.085938 147.679688 184.457031 L 169.5 209.621094 L 227.992188 151.070312 C 228.292969 150.777344 228.621094 150.519531 228.972656 150.289062 C 229.328125 150.0625 229.699219 149.867188 230.085938 149.710938 C 230.476562 149.554688 230.878906 149.433594 231.289062 149.355469 C 231.703125 149.273438 232.117188 149.230469 232.539062 149.230469 C 232.957031 149.230469 233.375 149.269531 233.785156 149.347656 C 234.199219 149.425781 234.601562 149.539062 234.992188 149.695312 C 235.382812 149.851562 235.753906 150.042969 236.109375 150.265625 C 236.460938 150.492188 236.792969 150.75 237.097656 151.039062 Z M 278.847656 187.570312 C 278.847656 189.066406 278.8125 190.558594 278.738281 192.054688 C 278.664062 193.546875 278.554688 195.039062 278.410156 196.527344 C 278.261719 198.015625 278.078125 199.496094 277.859375 200.976562 C 277.640625 202.457031 277.382812 203.929688 277.09375 205.394531 C 276.800781 206.863281 276.472656 208.320312 276.109375 209.769531 C 275.746094 211.21875 275.347656 212.660156 274.914062 214.09375 C 274.480469 215.523438 274.011719 216.941406 273.507812 218.351562 C 273.003906 219.757812 272.464844 221.152344 271.894531 222.535156 C 271.320312 223.914062 270.714844 225.28125 270.074219 226.632812 C 269.4375 227.984375 268.765625 229.320312 268.058594 230.640625 C 267.355469 231.957031 266.617188 233.257812 265.847656 234.539062 C 265.082031 235.824219 264.28125 237.085938 263.449219 238.328125 C 262.621094 239.574219 261.757812 240.792969 260.867188 241.996094 C 259.976562 243.195312 259.058594 244.375 258.109375 245.53125 C 257.160156 246.6875 256.183594 247.820312 255.179688 248.925781 C 254.175781 250.035156 253.144531 251.117188 252.085938 252.175781 C 251.03125 253.230469 249.949219 254.261719 248.839844 255.265625 C 247.730469 256.269531 246.601562 257.246094 245.445312 258.195312 C 244.289062 259.144531 243.109375 260.0625 241.910156 260.953125 C 240.707031 261.84375 239.484375 262.707031 238.242188 263.535156 C 237 264.367188 235.734375 265.167969 234.453125 265.933594 C 233.171875 266.703125 231.871094 267.441406 230.550781 268.144531 C 229.234375 268.851562 227.898438 269.523438 226.546875 270.160156 C 225.195312 270.800781 223.828125 271.40625 222.445312 271.976562 C 221.066406 272.550781 219.671875 273.089844 218.261719 273.59375 C 216.855469 274.097656 215.433594 274.566406 214.003906 275 C 212.574219 275.433594 211.132812 275.832031 209.683594 276.195312 C 208.230469 276.558594 206.773438 276.886719 205.308594 277.175781 C 203.839844 277.46875 202.367188 277.722656 200.890625 277.945312 C 199.410156 278.164062 197.925781 278.347656 196.4375 278.492188 C 194.949219 278.640625 193.460938 278.75 191.964844 278.820312 C 190.472656 278.894531 188.976562 278.933594 187.484375 278.933594 C 185.988281 278.933594 184.492188 278.894531 183 278.820312 C 181.507812 278.746094 180.015625 278.636719 178.527344 278.492188 C 177.039062 278.34375 175.554688 278.160156 174.078125 277.941406 C 172.597656 277.722656 171.125 277.46875 169.660156 277.175781 C 168.191406 276.882812 166.734375 276.554688 165.285156 276.191406 C 163.832031 275.828125 162.390625 275.429688 160.960938 274.996094 C 159.53125 274.5625 158.113281 274.09375 156.703125 273.589844 C 155.296875 273.085938 153.902344 272.546875 152.519531 271.976562 C 151.136719 271.402344 149.773438 270.796875 148.421875 270.15625 C 147.070312 269.519531 145.734375 268.847656 144.414062 268.140625 C 143.097656 267.4375 141.796875 266.699219 140.511719 265.929688 C 139.230469 265.160156 137.96875 264.363281 136.726562 263.53125 C 135.480469 262.699219 134.257812 261.839844 133.058594 260.949219 C 131.859375 260.058594 130.679688 259.136719 129.523438 258.191406 C 128.367188 257.242188 127.234375 256.265625 126.128906 255.261719 C 125.019531 254.257812 123.9375 253.226562 122.878906 252.167969 C 121.824219 251.109375 120.792969 250.027344 119.789062 248.921875 C 118.785156 247.8125 117.808594 246.679688 116.859375 245.523438 C 115.910156 244.367188 114.992188 243.191406 114.101562 241.988281 C 113.210938 240.789062 112.351562 239.566406 111.519531 238.324219 C 110.6875 237.078125 109.890625 235.816406 109.121094 234.535156 C 108.351562 233.25 107.617188 231.949219 106.910156 230.632812 C 106.207031 229.3125 105.535156 227.976562 104.894531 226.625 C 104.253906 225.273438 103.648438 223.90625 103.078125 222.527344 C 102.503906 221.144531 101.96875 219.75 101.464844 218.34375 C 100.960938 216.933594 100.492188 215.515625 100.058594 214.085938 C 99.625 212.652344 99.226562 211.210938 98.863281 209.761719 C 98.5 208.3125 98.171875 206.851562 97.878906 205.386719 C 97.589844 203.921875 97.332031 202.445312 97.113281 200.96875 C 96.894531 199.488281 96.710938 198.003906 96.566406 196.515625 C 96.417969 195.03125 96.308594 193.539062 96.234375 192.046875 C 96.164062 190.550781 96.125 189.058594 96.125 187.5625 C 96.125 186.066406 96.164062 184.574219 96.238281 183.078125 C 96.308594 181.585938 96.421875 180.09375 96.566406 178.605469 C 96.714844 177.117188 96.898438 175.636719 97.117188 174.15625 C 97.335938 172.675781 97.589844 171.203125 97.882812 169.738281 C 98.175781 168.273438 98.503906 166.8125 98.867188 165.363281 C 99.230469 163.914062 99.628906 162.472656 100.0625 161.042969 C 100.496094 159.609375 100.964844 158.191406 101.46875 156.785156 C 101.972656 155.375 102.511719 153.980469 103.085938 152.597656 C 103.65625 151.21875 104.261719 149.851562 104.902344 148.5 C 105.542969 147.148438 106.214844 145.8125 106.917969 144.496094 C 107.625 143.175781 108.359375 141.875 109.128906 140.59375 C 109.898438 139.3125 110.699219 138.046875 111.527344 136.804688 C 112.359375 135.5625 113.21875 134.339844 114.109375 133.140625 C 115.003906 131.9375 115.921875 130.757812 116.871094 129.605469 C 117.820312 128.449219 118.796875 127.316406 119.800781 126.207031 C 120.804688 125.101562 121.835938 124.019531 122.890625 122.960938 C 123.949219 121.902344 125.03125 120.875 126.140625 119.871094 C 127.25 118.867188 128.378906 117.890625 129.535156 116.941406 C 130.691406 115.992188 131.871094 115.074219 133.070312 114.183594 C 134.273438 113.292969 135.496094 112.429688 136.738281 111.601562 C 137.980469 110.769531 139.246094 109.96875 140.527344 109.203125 C 141.808594 108.433594 143.109375 107.695312 144.429688 106.992188 C 145.75 106.289062 147.082031 105.617188 148.433594 104.976562 C 149.789062 104.335938 151.152344 103.730469 152.535156 103.160156 C 153.917969 102.585938 155.3125 102.050781 156.71875 101.546875 C 158.128906 101.042969 159.546875 100.574219 160.976562 100.140625 C 162.410156 99.707031 163.847656 99.308594 165.300781 98.945312 C 166.75 98.582031 168.207031 98.253906 169.675781 97.960938 C 171.140625 97.671875 172.613281 97.414062 174.09375 97.195312 C 175.574219 96.976562 177.054688 96.792969 178.542969 96.648438 C 180.03125 96.5 181.523438 96.390625 183.015625 96.320312 C 184.511719 96.246094 186.003906 96.210938 187.5 96.210938 C 188.996094 96.210938 190.488281 96.25 191.980469 96.324219 C 193.472656 96.398438 194.964844 96.511719 196.449219 96.660156 C 197.9375 96.808594 199.421875 96.992188 200.898438 97.214844 C 202.375 97.433594 203.847656 97.691406 205.3125 97.984375 C 206.78125 98.277344 208.238281 98.605469 209.6875 98.96875 C 211.136719 99.335938 212.574219 99.734375 214.007812 100.167969 C 215.4375 100.605469 216.855469 101.074219 218.261719 101.578125 C 219.667969 102.082031 221.0625 102.621094 222.441406 103.195312 C 223.824219 103.769531 225.1875 104.375 226.539062 105.015625 C 227.890625 105.65625 229.222656 106.328125 230.542969 107.03125 C 231.859375 107.738281 233.160156 108.472656 234.441406 109.242188 C 235.722656 110.011719 236.984375 110.8125 238.226562 111.644531 C 239.46875 112.472656 240.691406 113.335938 241.890625 114.226562 C 243.089844 115.117188 244.269531 116.035156 245.421875 116.984375 C 246.578125 117.933594 247.710938 118.910156 248.816406 119.914062 C 249.925781 120.917969 251.007812 121.945312 252.0625 123.003906 C 253.121094 124.058594 254.148438 125.140625 255.152344 126.25 C 256.15625 127.355469 257.132812 128.488281 258.082031 129.644531 C 259.03125 130.800781 259.949219 131.976562 260.839844 133.175781 C 261.730469 134.378906 262.589844 135.597656 263.421875 136.839844 C 264.253906 138.085938 265.050781 139.347656 265.820312 140.628906 C 266.589844 141.910156 267.328125 143.210938 268.03125 144.527344 C 268.738281 145.84375 269.410156 147.179688 270.046875 148.53125 C 270.6875 149.882812 271.292969 151.246094 271.867188 152.628906 C 272.441406 154.007812 272.976562 155.402344 273.484375 156.808594 C 273.988281 158.214844 274.457031 159.632812 274.890625 161.0625 C 275.328125 162.492188 275.726562 163.933594 276.089844 165.382812 C 276.453125 166.832031 276.78125 168.289062 277.074219 169.753906 C 277.367188 171.222656 277.625 172.691406 277.847656 174.171875 C 278.066406 175.648438 278.25 177.132812 278.398438 178.621094 C 278.546875 180.105469 278.660156 181.597656 278.734375 183.089844 C 278.808594 184.582031 278.847656 186.074219 278.847656 187.570312 Z M 266.324219 187.570312 C 266.324219 186.28125 266.292969 184.992188 266.230469 183.703125 C 266.167969 182.414062 266.074219 181.125 265.945312 179.84375 C 265.820312 178.558594 265.664062 177.277344 265.472656 176 C 265.285156 174.726562 265.0625 173.453125 264.8125 172.1875 C 264.5625 170.921875 264.277344 169.664062 263.964844 168.414062 C 263.652344 167.160156 263.308594 165.917969 262.933594 164.683594 C 262.558594 163.449219 262.15625 162.222656 261.71875 161.007812 C 261.285156 159.792969 260.820312 158.589844 260.328125 157.398438 C 259.835938 156.207031 259.3125 155.027344 258.761719 153.859375 C 258.207031 152.691406 257.628906 151.539062 257.019531 150.402344 C 256.414062 149.265625 255.777344 148.140625 255.113281 147.035156 C 254.449219 145.929688 253.761719 144.839844 253.042969 143.765625 C 252.328125 142.691406 251.585938 141.636719 250.816406 140.601562 C 250.046875 139.566406 249.253906 138.546875 248.433594 137.550781 C 247.617188 136.554688 246.773438 135.578125 245.90625 134.621094 C 245.042969 133.664062 244.152344 132.730469 243.238281 131.816406 C 242.328125 130.90625 241.394531 130.015625 240.4375 129.148438 C 239.480469 128.28125 238.503906 127.4375 237.507812 126.621094 C 236.511719 125.800781 235.492188 125.007812 234.457031 124.238281 C 233.421875 123.46875 232.367188 122.726562 231.292969 122.011719 C 230.21875 121.292969 229.128906 120.605469 228.023438 119.941406 C 226.917969 119.277344 225.796875 118.640625 224.65625 118.03125 C 223.519531 117.425781 222.367188 116.84375 221.199219 116.292969 C 220.035156 115.742188 218.855469 115.21875 217.664062 114.722656 C 216.472656 114.230469 215.265625 113.765625 214.050781 113.332031 C 212.835938 112.894531 211.613281 112.492188 210.378906 112.117188 C 209.144531 111.742188 207.898438 111.398438 206.648438 111.085938 C 205.398438 110.769531 204.136719 110.488281 202.871094 110.234375 C 201.605469 109.984375 200.335938 109.765625 199.058594 109.574219 C 197.785156 109.386719 196.503906 109.226562 195.21875 109.101562 C 193.933594 108.972656 192.648438 108.878906 191.359375 108.816406 C 190.070312 108.753906 188.78125 108.71875 187.492188 108.71875 C 186.199219 108.71875 184.910156 108.75 183.621094 108.816406 C 182.332031 108.878906 181.046875 108.972656 179.761719 109.097656 C 178.480469 109.226562 177.199219 109.382812 175.921875 109.574219 C 174.644531 109.761719 173.375 109.984375 172.109375 110.234375 C 170.84375 110.484375 169.585938 110.769531 168.332031 111.082031 C 167.082031 111.394531 165.839844 111.738281 164.605469 112.113281 C 163.371094 112.488281 162.144531 112.894531 160.929688 113.328125 C 159.714844 113.761719 158.511719 114.226562 157.320312 114.71875 C 156.128906 115.214844 154.949219 115.738281 153.78125 116.289062 C 152.613281 116.839844 151.460938 117.421875 150.324219 118.027344 C 149.1875 118.636719 148.0625 119.273438 146.957031 119.9375 C 145.851562 120.597656 144.761719 121.289062 143.6875 122.007812 C 142.613281 122.722656 141.558594 123.464844 140.523438 124.234375 C 139.488281 125.003906 138.472656 125.796875 137.472656 126.617188 C 136.476562 127.433594 135.5 128.277344 134.542969 129.144531 C 133.585938 130.007812 132.652344 130.898438 131.742188 131.8125 C 130.828125 132.722656 129.9375 133.65625 129.070312 134.613281 C 128.207031 135.570312 127.363281 136.546875 126.542969 137.542969 C 125.726562 138.542969 124.933594 139.558594 124.164062 140.59375 C 123.394531 141.632812 122.652344 142.6875 121.933594 143.757812 C 121.21875 144.832031 120.527344 145.921875 119.863281 147.027344 C 119.203125 148.136719 118.566406 149.257812 117.957031 150.394531 C 117.347656 151.535156 116.769531 152.6875 116.21875 153.851562 C 115.667969 155.019531 115.144531 156.199219 114.648438 157.390625 C 114.15625 158.582031 113.691406 159.785156 113.257812 161 C 112.824219 162.214844 112.417969 163.441406 112.042969 164.675781 C 111.667969 165.910156 111.324219 167.152344 111.011719 168.40625 C 110.699219 169.65625 110.414062 170.914062 110.164062 172.179688 C 109.910156 173.445312 109.691406 174.71875 109.503906 175.992188 C 109.3125 177.269531 109.15625 178.550781 109.027344 179.835938 C 108.902344 181.117188 108.808594 182.40625 108.742188 183.695312 C 108.679688 184.980469 108.648438 186.273438 108.648438 187.5625 C 108.648438 188.851562 108.679688 190.140625 108.746094 191.429688 C 108.808594 192.71875 108.902344 194.007812 109.03125 195.289062 C 109.15625 196.574219 109.3125 197.855469 109.503906 199.132812 C 109.691406 200.40625 109.914062 201.679688 110.164062 202.945312 C 110.417969 204.210938 110.699219 205.46875 111.011719 206.71875 C 111.328125 207.972656 111.671875 209.214844 112.046875 210.449219 C 112.421875 211.683594 112.824219 212.910156 113.261719 214.125 C 113.695312 215.339844 114.160156 216.542969 114.652344 217.734375 C 115.148438 218.925781 115.667969 220.105469 116.222656 221.273438 C 116.773438 222.4375 117.351562 223.589844 117.960938 224.726562 C 118.570312 225.867188 119.207031 226.988281 119.871094 228.09375 C 120.53125 229.203125 121.222656 230.292969 121.941406 231.363281 C 122.65625 232.4375 123.398438 233.492188 124.167969 234.527344 C 124.9375 235.5625 125.730469 236.582031 126.550781 237.578125 C 127.367188 238.574219 128.210938 239.550781 129.078125 240.507812 C 129.945312 241.464844 130.832031 242.398438 131.746094 243.3125 C 132.660156 244.222656 133.59375 245.113281 134.550781 245.980469 C 135.503906 246.84375 136.480469 247.6875 137.480469 248.507812 C 138.476562 249.324219 139.496094 250.117188 140.53125 250.886719 C 141.566406 251.65625 142.621094 252.398438 143.695312 253.113281 C 144.769531 253.832031 145.859375 254.519531 146.964844 255.183594 C 148.070312 255.847656 149.195312 256.484375 150.332031 257.089844 C 151.46875 257.699219 152.621094 258.28125 153.789062 258.832031 C 154.957031 259.382812 156.132812 259.90625 157.328125 260.398438 C 158.519531 260.890625 159.722656 261.355469 160.9375 261.792969 C 162.152344 262.226562 163.378906 262.628906 164.613281 263.003906 C 165.847656 263.378906 167.089844 263.722656 168.34375 264.035156 C 169.59375 264.347656 170.851562 264.632812 172.117188 264.882812 C 173.382812 265.136719 174.65625 265.355469 175.929688 265.542969 C 177.207031 265.734375 178.488281 265.890625 179.773438 266.015625 C 181.054688 266.144531 182.34375 266.238281 183.632812 266.300781 C 184.917969 266.363281 186.210938 266.394531 187.5 266.394531 C 188.789062 266.394531 190.078125 266.359375 191.367188 266.296875 C 192.652344 266.230469 193.941406 266.136719 195.222656 266.007812 C 196.507812 265.878906 197.785156 265.71875 199.0625 265.53125 C 200.335938 265.339844 201.605469 265.117188 202.871094 264.863281 C 204.136719 264.613281 205.394531 264.328125 206.644531 264.015625 C 207.894531 263.699219 209.136719 263.355469 210.371094 262.980469 C 211.605469 262.605469 212.828125 262.199219 214.042969 261.761719 C 215.253906 261.328125 216.457031 260.863281 217.648438 260.367188 C 218.839844 259.875 220.019531 259.351562 221.183594 258.800781 C 222.347656 258.246094 223.5 257.667969 224.636719 257.058594 C 225.773438 256.449219 226.894531 255.816406 228.003906 255.152344 C 229.109375 254.488281 230.195312 253.796875 231.269531 253.082031 C 232.339844 252.363281 233.394531 251.621094 234.429688 250.851562 C 235.464844 250.085938 236.480469 249.292969 237.480469 248.472656 C 238.476562 247.65625 239.453125 246.8125 240.40625 245.945312 C 241.363281 245.082031 242.296875 244.191406 243.207031 243.277344 C 244.121094 242.367188 245.007812 241.433594 245.875 240.476562 C 246.742188 239.523438 247.582031 238.546875 248.402344 237.550781 C 249.21875 236.554688 250.011719 235.535156 250.78125 234.5 C 251.550781 233.464844 252.292969 232.410156 253.011719 231.339844 C 253.726562 230.269531 254.417969 229.179688 255.082031 228.074219 C 255.742188 226.96875 256.378906 225.847656 256.988281 224.707031 C 257.597656 223.570312 258.175781 222.421875 258.730469 221.253906 C 259.28125 220.089844 259.804688 218.910156 260.296875 217.71875 C 260.792969 216.527344 261.257812 215.328125 261.691406 214.113281 C 262.128906 212.898438 262.53125 211.675781 262.910156 210.441406 C 263.285156 209.207031 263.628906 207.964844 263.941406 206.714844 C 264.257812 205.464844 264.542969 204.207031 264.792969 202.941406 C 265.046875 201.675781 265.269531 200.40625 265.457031 199.132812 C 265.648438 197.855469 265.808594 196.578125 265.9375 195.292969 C 266.0625 194.011719 266.160156 192.726562 266.226562 191.4375 C 266.289062 190.148438 266.324219 188.859375 266.324219 187.570312 Z M 341.953125 166.164062 L 341.953125 215.050781 L 336.21875 215.535156 C 335.113281 215.625 333.917969 215.714844 332.628906 215.714844 L 311.945312 215.714844 C 308.085938 215.761719 307.335938 216.324219 306.257812 220.003906 C 303.328125 230.148438 299.292969 239.828125 294.152344 249.046875 C 292.453125 252.078125 292.378906 252.855469 295.277344 255.800781 C 298.617188 259.214844 302.066406 262.601562 305.464844 265.957031 C 307.679688 268.148438 309.886719 270.328125 312.050781 272.496094 L 316.488281 276.898438 L 312.089844 281.328125 C 305.183594 288.285156 298.355469 295.101562 291.425781 302.011719 L 276.65625 316.761719 L 272.226562 312.25 C 268 307.945312 263.617188 303.484375 259.152344 299.019531 C 257.179688 296.800781 254.953125 294.871094 252.472656 293.230469 C 249.539062 294.039062 246.757812 295.210938 244.125 296.738281 C 236.65625 300.3125 228.976562 303.355469 221.085938 305.871094 C 215.917969 307.652344 215.550781 308.136719 215.550781 313.285156 L 215.550781 342.089844 L 159.53125 342.089844 L 159.53125 313.203125 C 159.53125 308.195312 159.222656 307.777344 154.058594 305.890625 C 144.875 302.53125 135.992188 298.867188 127.65625 295.011719 C 122.425781 292.535156 122.230469 292.730469 118.925781 296.035156 C 113.5 301.460938 108.109375 306.851562 102.9375 312.101562 L 98.507812 316.597656 L 58.648438 276.832031 L 79.414062 256.148438 C 82.394531 253.121094 82.613281 252.703125 80.429688 247.949219 C 76.253906 238.820312 72.472656 229.707031 69.242188 220.855469 C 67.464844 216.019531 66.738281 215.703125 62.402344 215.703125 L 33.046875 215.703125 L 33.046875 159.765625 L 60.984375 159.765625 C 67.335938 159.765625 67.335938 159.765625 69.59375 153.15625 C 72.484375 144.910156 75.824219 136.847656 79.613281 128.96875 C 82.699219 122.617188 82.699219 122.617188 78.070312 117.980469 C 73.199219 113.082031 68.316406 108.1875 63.4375 103.238281 L 62.75 102.546875 L 60.105469 97.394531 L 98.535156 58.964844 L 108.1875 68.617188 C 111.65625 72.097656 115.238281 75.714844 118.816406 79.226562 C 122.335938 82.75 122.476562 82.890625 127.769531 80.382812 C 136.339844 76.375 145.160156 72.738281 154.007812 69.53125 C 159.351562 67.578125 159.53125 66.992188 159.53125 62.300781 L 159.53125 33.046875 L 215.546875 33.046875 L 215.546875 51.039062 C 215.546875 55.246094 215.515625 59.453125 215.546875 63.65625 C 215.601562 67.789062 217.039062 68.199219 218.558594 68.636719 C 229.441406 71.742188 239.839844 76.027344 249.753906 81.492188 C 251.765625 82.59375 252.589844 82.847656 255.179688 80.316406 C 259.023438 76.589844 262.757812 72.84375 266.496094 69.089844 L 270.21875 65.359375 C 270.664062 64.914062 271.113281 64.488281 271.550781 64.070312 L 276.914062 58.730469 L 316.675781 98.488281 L 312.179688 102.917969 C 306.925781 108.089844 301.519531 113.417969 296.273438 118.667969 C 292.351562 122.585938 292.351562 122.585938 294.988281 128.136719 C 299.105469 137.046875 302.691406 145.753906 305.667969 154.078125 C 307.5625 159.375 307.984375 159.695312 313.183594 159.75 L 335.519531 159.75 L 341.464844 161.105469 Z M 329.429688 172.269531 L 313.148438 172.269531 C 302.574219 172.164062 297.554688 168.515625 293.902344 158.300781 C 291.046875 150.328125 287.601562 141.964844 283.664062 133.449219 C 279.4375 124.527344 278.847656 118.402344 287.421875 109.8125 C 291.203125 106.027344 295.074219 102.199219 298.90625 98.421875 L 276.886719 76.40625 L 275.371094 77.925781 C 271.578125 81.738281 267.792969 85.53125 263.925781 89.285156 C 263.320312 89.992188 262.660156 90.636719 261.945312 91.226562 C 261.226562 91.816406 260.460938 92.339844 259.652344 92.792969 C 258.839844 93.246094 257.996094 93.625 257.121094 93.929688 C 256.242188 94.234375 255.347656 94.457031 254.429688 94.601562 C 253.511719 94.75 252.589844 94.8125 251.660156 94.792969 C 250.730469 94.773438 249.8125 94.675781 248.902344 94.492188 C 247.992188 94.3125 247.101562 94.050781 246.238281 93.714844 C 245.375 93.375 244.546875 92.964844 243.753906 92.476562 C 234.65625 87.464844 225.113281 83.53125 215.125 80.679688 C 214.214844 80.441406 213.335938 80.125 212.480469 79.734375 C 211.625 79.34375 210.8125 78.882812 210.035156 78.347656 C 209.261719 77.816406 208.539062 77.21875 207.867188 76.5625 C 207.195312 75.90625 206.585938 75.195312 206.039062 74.429688 C 205.488281 73.667969 205.011719 72.859375 204.601562 72.015625 C 204.191406 71.167969 203.859375 70.292969 203.601562 69.386719 C 203.347656 68.484375 203.167969 67.566406 203.070312 66.628906 C 202.972656 65.695312 202.957031 64.757812 203.019531 63.820312 C 202.96875 59.542969 202.988281 55.261719 203.019531 50.984375 L 203.019531 45.558594 L 172.054688 45.558594 L 172.054688 62.320312 C 172.054688 73.953125 166.785156 78.214844 158.277344 81.320312 C 149.769531 84.425781 141.289062 87.886719 133.089844 91.71875 C 124.515625 95.765625 118.285156 96.40625 109.988281 88.121094 C 106.410156 84.59375 102.800781 80.964844 99.308594 77.449219 L 98.542969 76.6875 L 76.546875 98.675781 C 80.011719 102.167969 83.480469 105.644531 86.953125 109.113281 C 96.246094 118.40625 96.066406 123.824219 90.902344 134.425781 C 87.328125 141.859375 84.171875 149.472656 81.441406 157.257812 C 77.894531 167.621094 74.097656 172.285156 60.984375 172.285156 L 45.570312 172.285156 L 45.570312 203.195312 L 62.402344 203.195312 C 73.757812 203.195312 78.054688 208.542969 81.003906 216.554688 C 84.125 225.097656 87.761719 233.902344 91.8125 242.726562 C 95.425781 250.597656 96.097656 257.0625 88.308594 264.972656 L 76.375 276.832031 L 98.425781 298.824219 C 102.242188 294.972656 106.144531 291.070312 110.050781 287.164062 C 118.1875 279.03125 124.605469 279.707031 132.945312 283.65625 C 140.921875 287.347656 149.480469 290.875 158.335938 294.113281 C 166.792969 297.207031 172.035156 301.476562 172.035156 313.191406 L 172.035156 329.554688 L 203.023438 329.554688 L 203.023438 313.273438 C 203.023438 302.742188 206.832031 297.515625 217.066406 293.996094 C 224.425781 291.65625 231.585938 288.828125 238.558594 285.507812 C 253.113281 278.28125 256.6875 278.828125 267.992188 290.152344 C 270.941406 293.105469 273.859375 296.054688 276.722656 298.960938 L 282.566406 293.117188 C 287.996094 287.691406 293.378906 282.332031 298.777344 276.914062 L 296.691406 274.828125 C 293.253906 271.433594 289.789062 268.007812 286.382812 264.550781 C 285.613281 263.910156 284.90625 263.203125 284.265625 262.433594 C 283.625 261.660156 283.058594 260.835938 282.570312 259.960938 C 282.082031 259.085938 281.675781 258.175781 281.355469 257.222656 C 281.035156 256.273438 280.800781 255.304688 280.660156 254.3125 C 280.515625 253.320312 280.464844 252.320312 280.503906 251.320312 C 280.546875 250.316406 280.675781 249.328125 280.902344 248.351562 C 281.125 247.371094 281.433594 246.421875 281.832031 245.503906 C 282.226562 244.582031 282.707031 243.707031 283.265625 242.875 C 287.933594 234.484375 291.597656 225.679688 294.261719 216.453125 C 294.460938 215.464844 294.75 214.503906 295.125 213.566406 C 295.5 212.628906 295.957031 211.734375 296.496094 210.882812 C 297.035156 210.027344 297.644531 209.230469 298.328125 208.488281 C 299.011719 207.746094 299.753906 207.070312 300.558594 206.464844 C 301.367188 205.855469 302.21875 205.328125 303.121094 204.875 C 304.023438 204.421875 304.957031 204.054688 305.925781 203.769531 C 306.894531 203.488281 307.878906 203.296875 308.882812 203.191406 C 309.886719 203.085938 310.890625 203.074219 311.898438 203.152344 L 329.429688 203.152344 Z M 329.429688 172.269531 " fill-opacity="1" fill-rule="nonzero"/></g></svg>